Simulation
nRows=44
nColumns=15
endheader
time  TH_x TH_y TH_z SC_y  SC_z  SC_x  AC_y  AC_z  AC_x  GH_y  GH_z  GH_yy  EL_x  PS_y
0.75  0.000000  0.000000  0.000000  -33.8499002232445  2.071235917015951  19.907350686556942  60.99234882593252  2.2524135711854227  -12.8482509419643  20.53120804998779  29.221295758180606  -17.424327205510266  19.941741529716605  0.000000
0.765  0.000000  0.000000  0.000000  -34.0132447255123  2.2144164131293667  20.156787193549725  61.07987941309571  2.6478261220958643  -12.770017799178651  20.605272764667294  29.730600229923702  -17.758603009951088  19.739309723489452  0.000000
0.78  0.000000  0.000000  0.000000  -34.186068876598675  2.3617606847442225  20.413253232288017  61.168363449307456  3.0344157068273843  -12.680244146244426  20.6873888180248  30.22400645063554  -18.091798075698517  19.53612932554865  0.000000
0.7949999999999999  0.000000  0.000000  0.000000  -34.369487456559575  2.5129498070506755  20.677708990960344  61.26002179100171  3.4094035879580935  -12.577596537628642  20.77680045684543  30.701727039452457  -18.424078531512958  19.332531601000287  0.000000
0.8099999999999999  0.000000  0.000000  0.000000  -34.56491942947634  2.667656543527816  20.9509541614149  61.35762391259708  3.769830816709726  -12.46082742057818  20.872365553857403  31.164278154569253  -18.755622675491562  19.128797867763808  0.000000
0.825  0.000000  0.000000  0.000000  -34.77376094429467  2.825151136457003  21.234193221738625  61.46386322635414  4.112872602207353  -12.328866879848537  20.972782360601606  31.611853088324978  -19.086374437064332  18.925079494344466  0.000000
0.84  0.000000  0.000000  0.000000  -34.9969614708064  2.9844333199106328  21.52799488213532  61.58122439425432  4.436169577804181  -12.181211243584398  21.07675616602755  32.04506872718135  -19.416344473923317  18.721441753493256  0.000000
0.855  0.000000  0.000000  0.000000  -35.23495392546104  3.144258991484289  21.832908202065013  61.711371865370324  4.738178777968736  -12.018116937229607  21.183438762293836  32.464059162667816  -19.74525306913346  18.518309172810184  0.000000
0.87  0.000000  0.000000  0.000000  -35.487382881546985  3.3032294905019195  22.14844066174644  61.85488922600308  5.018543311683291  -11.840779643511125  21.292443522073846  32.869193202923704  -20.072694574374992  18.31631722334857  0.000000
0.885  0.000000  0.000000  0.000000  -35.75330097318569  3.459845059183969  22.473928322502868  62.0111029564794  5.278008594577913  -11.651254337162985  21.40389201761263  33.260230457839214  -20.39801491572478  18.11644856613836  0.000000
0.8999999999999999  0.000000  0.000000  0.000000  -36.03109198606296  3.6128838020281338  22.807499022251214  62.1783169209926  5.518232828939351  -11.451962925690736  21.517727784452003  33.63723533175565  -20.720609177618666  17.91925943197251  0.000000
0.9149999999999999  0.000000  0.000000  0.000000  -36.31836955270377  3.7612669944910837  23.146566916654933  62.35370807162802  5.742248588348937  -11.24547950844511  21.633170003063515  33.99944945329695  -21.039476134355326  17.725985651718613  0.000000
0.9299999999999999  0.000000  0.000000  0.000000  -36.61292955444033  3.904278212927315  23.489192387005176  62.53487879354438  5.9519982020870215  -11.034350073647758  21.749275611411942  34.34675344842549  -21.353623594673483  17.5372566441525  0.000000
0.945  0.000000  0.000000  0.000000  -36.91320977775968  4.041157701193066  23.83474828417952  62.720596678680316  6.14854373726289  -10.820676843208064  21.86552498098714  34.67902779621685  -21.6622367020827  17.353039655831296  0.000000
0.96  0.000000  0.000000  0.000000  -37.2172275192722  4.170747849073186  24.181674035629506  62.90961808120348  6.333793695010553  -10.606861018648832  21.981135418727348  34.99667227349141  -21.96432913926507  17.17443617415991  0.000000
0.975  0.000000  0.000000  0.000000  -37.52393768996912  4.29239102989818  24.5289026405309  63.10117586656917  6.508970455736236  -10.39427298375344  22.09545913488019  35.299889735293156  -22.258837617795976  17.002000948809897  0.000000
0.99  0.000000  0.000000  0.000000  -37.83229481524391  4.4059420687950395  24.874864327058308  63.29426685546301  6.674509828431633  -10.183991454064007  22.20699232237092  35.589533202521814  -22.544963118216103  16.836130073493035  0.000000
1.005  0.000000  0.000000  0.000000  -38.14053253582022  4.511319755410441  25.218212028615724  63.487351807993925  6.830862947690188  -9.977229492691832  22.313092118587647  35.86559045870771  -22.82162547285636  16.677625631274886  0.000000
1.02  0.000000  0.000000  0.000000  -38.44674468323867  4.609072336015786  25.557776853335394  63.67904767400618  6.977529052625018  -9.774863048486758  22.411458405628878  36.12857164421753  -23.08770050362622  16.52664848590127  0.000000
1.035  0.000000  0.000000  0.000000  -38.74977843103808  4.699300785977343  25.893096249631224  63.86895055654107  7.114397584125735  -9.577304902603903  22.501578695572675  36.37856922557892  -23.34229498856153  16.38315688617051  0.000000
1.05  0.000000  0.000000  0.000000  -39.048607346730144  4.781716295034064  26.22271914614839  64.05654414308334  7.242251871943321  -9.385356609787422  22.58411754814233  36.616429671296174  -23.58434437240477  16.248222003903496  0.000000
1.065  0.000000  0.000000  0.000000  -39.34187466457731  4.856496979801992  26.54531074266437  64.24109706545343  7.36227793124963  -9.199894894386473  22.659740547379407  36.84200354643058  -23.812748144683763  16.12346451467406  0.000000
1.08  0.000000  0.000000  0.000000  -39.627572176881706  4.923977252436207  26.858643490131733  64.4213443194112  7.475313381600299  -9.021401912094058  22.728028640466828  37.05591678570408  -24.026381807007688  16.00990711707154  0.000000
1.095  0.000000  0.000000  0.000000  -39.90401624706046  4.98466070158189  27.161378488329298  64.59646147616353  7.581700820769941  -8.849985489744963  22.78828824277437  37.25797226062379  -24.224483722999413  15.908117622938697  0.000000
1.1099999999999999  0.000000  0.000000  0.000000  -40.1696042446983  5.039280395010209  27.452211452477325  64.76544311591039  7.681005241130067  -8.686060859254148  22.840007570084303  37.44880594587249  -24.406299353510878  15.818556589177353  0.000000
1.125  0.000000  0.000000  0.000000  -40.4229482737678  5.08820254517459  27.730754049491647  64.92760786561941  7.773238331393352  -8.530220658847334  22.883052577816088  37.6279837760054  -24.571099507292494  15.741608207858544  0.000000
1.14  0.000000  0.000000  0.000000  -40.66217760735177  5.131940978774581  27.995810669425126  65.08202384189322  7.858266340750919  -8.383265018843117  22.917043473143092  37.79609377201909  -24.718494841803267  15.677548027101631  0.000000
1.155  0.000000  0.000000  0.000000  -40.88591831904862  5.171219979310758  28.246778739969283  65.22747560752293  7.936707200772131  -8.245279401682891  22.942494896222033  37.95219639082883  -24.84783703021307  15.626907516426058  0.000000
1.17  0.000000  0.000000  0.000000  -41.09436864301901  5.207110949993317  28.482272656343188  65.36342352160638  8.008285314051653  -8.116138998604564  22.960750588198305  38.097204228974626  -24.95922271315487  15.590450596176634  0.000000
1.185  0.000000  0.000000  0.000000  -41.289813157364556  5.239114154445108  28.70127402970429  65.48994007080222  8.073276100898033  -7.994395375240149  22.973344523679742  38.23191385739969  -25.05293996817501  15.568337162401747  0.000000
1.2  0.000000  0.000000  0.000000  -41.47078118346825  5.268400955279623  28.90307862202955  65.60510379808275  8.130796689540787  -7.880852268169083  22.979078267849  38.35752092152638  -25.129675320984827  15.560192910368562  0.000000
1.2149999999999999  0.000000  0.000000  0.000000  -41.63448785005247  5.297125776109257  29.087853391053326  65.70761513287462  8.181186892739879  -7.776848887094821  22.97480544144811  38.47272246439395  -25.190427310649678  15.564429035500565  0.000000
1.23  0.000000  0.000000  0.000000  -41.7811694640216  5.325390984879926  29.25509925240593  65.79719165405939  8.224414473645254  -7.682092950766225  22.957822643766455  38.57856645413767  -25.23625662221263  15.578806367420604  0.000000
1.2449999999999999  0.000000  0.000000  0.000000  -41.91285687345463  5.352679994170015  29.404890614744104  65.87522665687572  8.261403449356482  -7.596398743109884  22.92710654327701  38.675144054933256  -25.26943156826979  15.601602862645557  0.000000
1.26  0.000000  0.000000  0.000000  -42.03077494119571  5.379404947292712  29.536775045137578  65.94109187309068  8.292484551864522  -7.519739851061634  22.88272126219535  38.763352212854215  -25.291638107247575  15.631878727184198  0.000000
1.275  0.000000  0.000000  0.000000  -42.13625325431187  5.405128407136188  29.65065278555541  65.99553911797499  8.319499787876863  -7.452536359107414  22.825417006656803  38.842432677079536  -25.30530329523147  15.668220013204396  0.000000
1.29  0.000000  0.000000  0.000000  -42.229877645764894  5.430034436104396  29.745459877903265  66.03762784940483  8.343247805707893  -7.394644564580863  22.756412774213608  38.912535157352174  -25.312844608355164  15.709787166835696  0.000000
1.305  0.000000  0.000000  0.000000  -42.312540032229535  5.45334004790173  29.82042401814884  66.06876588467031  8.366412093374857  -7.346995788924451  22.678507786383726  38.971395606953955  -25.317105635521113  15.754836302039413  0.000000
1.3199999999999998  0.000000  0.000000  0.000000  -42.38401867458916  5.474653875561046  29.873534106397983  66.0874692563438  8.390287705225765  -7.309480868055585  22.595484731960017  39.01707967982659  -25.321237240372184  15.80331795731423  0.000000
1.335  0.000000  0.000000  0.000000  -42.444299854240604  5.492601824121319  29.903005923139162  66.09562970929663  8.418357460064385  -7.284154935678419  22.51411033586786  39.04438691538907  -25.327903288988555  15.853403994061741  0.000000
1.3499999999999999  0.000000  0.000000  0.000000  -42.49145740998076  5.506212768353099  29.90569469343485  66.09097659724397  8.451444915153166  -7.271421046169798  22.44219218682619  39.047982562831  -25.341572360417818  15.90629242044207  0.000000
1.365  0.000000  0.000000  0.000000  -42.52290100149688  5.5152408934444095  29.879477222853176  66.07353385148481  8.491626673502902  -7.274152366443537  22.39257296272149  39.01780833858128  -25.363336497249268  15.959919620257528  0.000000
1.38  0.000000  0.000000  0.000000  -42.53217266060742  5.51952438495974  29.822085770867396  66.04060337088333  8.53495552206238  -7.295066517195055  22.376609153626095  38.944392560243934  -25.400888255856447  16.015673906827782  0.000000
1.395  0.000000  0.000000  0.000000  -42.514124273162714  5.518409520672414  29.736206313206164  65.98717590431515  8.576280906443381  -7.338196655362442  22.414680248355264  38.81279519311801  -25.450948614948512  16.072380363320267  0.000000
